<svg xmlns="http://www.w3.org/2000/svg" width="700" height="220" viewBox="0 0 700 220">
  <defs>
    <style>.mono { font-family: 'Courier New', Courier, monospace; }</style>
  </defs>

  <!-- Background -->
  <rect width="700" height="220" rx="8" fill="#0d1117"/>

  <!-- Title -->
  <text x="350" y="22" text-anchor="middle" class="mono" font-size="11" fill="#8b949e" letter-spacing="1">TRAINING STATUS — GSM8K DISTILLATION  ·  qwen3.6-plus → gemma-4-E2B-it</text>

  <!-- Progress bar -->
  <text x="24" y="44" class="mono" font-size="11" fill="#8b949e">Overall Progress</text>
  <text x="676" y="44" text-anchor="end" class="mono" font-size="11" font-weight="700" fill="#3fb950">100% ✓</text>
  <rect x="24" y="50" width="652" height="12" rx="6" fill="#21262d"/>
  <rect x="24" y="50" width="652" height="12" rx="6" fill="#238636" opacity="0.85"/>

  <!-- Row 1: CoT Traces -->
  <rect x="24" y="72" width="652" height="30" rx="5" fill="#0a1f0a" stroke="#238636" stroke-width="1"/>
  <text x="44" y="92" class="mono" font-size="13" fill="#3fb950">✓</text>
  <text x="64" y="92" class="mono" font-size="12" font-weight="600" fill="#f0f6fc">CoT Trace Generation</text>
  <text x="310" y="92" class="mono" font-size="11" fill="#8b949e">200 problems · qwen/qwen3.6-plus · 193 valid (96.5%)</text>
  <rect x="524" y="76" width="136" height="20" rx="5" fill="#238636" opacity="0.3"/>
  <text x="592" y="90" text-anchor="middle" class="mono" font-size="11" font-weight="600" fill="#3fb950">COMPLETE</text>

  <!-- Row 2: Training -->
  <rect x="24" y="110" width="652" height="30" rx="5" fill="#0a1f0a" stroke="#238636" stroke-width="1"/>
  <text x="44" y="130" class="mono" font-size="13" fill="#3fb950">✓</text>
  <text x="64" y="130" class="mono" font-size="12" font-weight="600" fill="#f0f6fc">Student Training  (Full Fine-tune)</text>
  <text x="370" y="130" class="mono" font-size="11" fill="#8b949e">5 epochs · loss 27.44 → 19.57 (-27.7%)</text>
  <rect x="524" y="114" width="136" height="20" rx="5" fill="#238636" opacity="0.3"/>
  <text x="592" y="128" text-anchor="middle" class="mono" font-size="11" font-weight="600" fill="#3fb950">COMPLETE</text>

  <!-- Row 3: Evaluation -->
  <rect x="24" y="148" width="652" height="30" rx="5" fill="#0a1f0a" stroke="#238636" stroke-width="1"/>
  <text x="44" y="168" class="mono" font-size="13" fill="#3fb950">✓</text>
  <text x="64" y="168" class="mono" font-size="12" font-weight="600" fill="#f0f6fc">GSM8K Evaluation</text>
  <text x="272" y="168" class="mono" font-size="11" fill="#8b949e">20 samples · accuracy 10% (35% numeric) · BLEU 0.329</text>
  <rect x="524" y="152" width="136" height="20" rx="5" fill="#238636" opacity="0.3"/>
  <text x="592" y="166" text-anchor="middle" class="mono" font-size="11" font-weight="600" fill="#3fb950">COMPLETE</text>

  <!-- Row 4: HF Upload -->
  <rect x="24" y="186" width="652" height="28" rx="5" fill="#0a1f0a" stroke="#238636" stroke-width="1"/>
  <text x="44" y="205" class="mono" font-size="13" fill="#3fb950">✓</text>
  <text x="64" y="205" class="mono" font-size="12" font-weight="600" fill="#f0f6fc">HuggingFace Upload</text>
  <text x="300" y="205" class="mono" font-size="11" fill="#8b949e">daksh-neo/gemma4-distillation-e4b-to-e2b</text>
  <rect x="524" y="190" width="136" height="20" rx="5" fill="#238636" opacity="0.3"/>
  <text x="592" y="204" text-anchor="middle" class="mono" font-size="11" font-weight="600" fill="#3fb950">COMPLETE</text>
</svg>
